<svg width="11" height="9" viewBox="0 0 11 9" fill="none" xmlns="http://www.w3.org/2000/svg">
    <path fill-rule="evenodd" clip-rule="evenodd" d="M2.59687 3.64998C2.48227 3.5268 2.34519 3.42854 2.19362 3.36095C2.04205 3.29336 1.87903 3.25778 1.71407 3.25629C1.54911 3.2548 1.38552 3.28744 1.23284 3.35228C1.08017 3.41713 0.941456 3.5129 0.82481 3.63399C0.708164 3.75509 0.615916 3.89909 0.55345 4.05759C0.490985 4.21609 0.459551 4.38592 0.460984 4.55716C0.462418 4.72841 0.496689 4.89765 0.561798 5.055C0.626908 5.21235 0.721553 5.35466 0.840209 5.47363L3.32488 8.05305C3.55786 8.29484 3.87379 8.43067 4.20322 8.43067C4.53264 8.43067 4.84857 8.29484 5.08155 8.05305L10.0509 2.89421C10.1696 2.77523 10.2642 2.63292 10.3293 2.47557C10.3944 2.31822 10.4287 2.14899 10.4301 1.97774C10.4316 1.80649 10.4001 1.63666 10.3377 1.47816C10.2752 1.31966 10.1829 1.17566 10.0663 1.05457C9.94965 0.933473 9.81094 0.837708 9.65826 0.77286C9.50558 0.708012 9.34199 0.675379 9.17704 0.676868C9.01208 0.678356 8.84906 0.713934 8.69749 0.781527C8.54592 0.849119 8.40883 0.947373 8.29423 1.07055L4.20322 5.31758L2.59687 3.64998Z" fill="#ef8cc0"/>
</svg>


