<svg width="24" height="16" viewBox="0 0 24 16" fill="none" xmlns="http://www.w3.org/2000/svg">
    <path d="M12 0.75C4.86536 0.75 0.256791 7.65839 0.173438 7.78418C0.0612427 7.91667 0.000121298 8.08083 0 8.25C0.000141923 8.39512 0.045192 8.53709 0.129688 8.65869C0.130724 8.66016 0.131765 8.66162 0.132812 8.66309C0.146567 8.6897 4.01507 15.75 12 15.75C19.9511 15.75 23.8139 8.75906 23.8609 8.67334C23.8641 8.66849 23.8672 8.66361 23.8703 8.65869C23.9548 8.53709 23.9999 8.39512 24 8.25C24 8.08151 23.9394 7.91794 23.8281 7.78564C23.8276 7.78516 23.8271 7.78467 23.8266 7.78418C23.7432 7.65839 19.1346 0.75 12 0.75ZM12 3C15.0928 3 17.6 5.3505 17.6 8.25C17.6 11.1495 15.0928 13.5 12 13.5C8.9072 13.5 6.4 11.1495 6.4 8.25C6.4 5.3505 8.9072 3 12 3ZM12 6C11.3635 6 10.753 6.23705 10.3029 6.65901C9.85286 7.08097 9.6 7.65326 9.6 8.25C9.6 8.84674 9.85286 9.41903 10.3029 9.84099C10.753 10.2629 11.3635 10.5 12 10.5C12.6365 10.5 13.247 10.2629 13.6971 9.84099C14.1471 9.41903 14.4 8.84674 14.4 8.25C14.4 7.65326 14.1471 7.08097 13.6971 6.65901C13.247 6.23705 12.6365 6 12 6Z" fill="#959CA3"/>
</svg>

